<svg version="1.1" xmlns="http://www.w3.org/2000/svg" xmlns:xlink="http://www.w3.org/1999/xlink"
	width="440" height="440" viewBox="-7 18 440 440">
<g>
	<path style="fill:#CC6600;" d="M395.2,103.841v83.67c0,93.523-41.338,148.979-76.011,179.036
		c-37.178,32.23-74.438,42.435-78.578,43.491l-10.267,2.629l-41.4-187.13l41.4-178.87L395.2,103.841z"/>
	<path style="fill:#CC6600;" d="M230.344,46.667v366l-10.288-2.629c-4.119-1.056-41.4-11.261-78.557-43.491
		c-34.694-30.057-76.032-85.512-76.032-179.036v-83.67L230.344,46.667z"/>
	<path style="fill:#E0A300;" d="M230.343,78.42L200.34,230.06l29.996,151.641l2.863-0.733c1.362-0.347,33.744-8.832,66.339-37.089
		c29.955-25.967,65.662-74.173,65.662-156.368V125.19L230.343,78.42z"/>
	<path style="fill:#FFC61B;" d="M95.466,125.19v62.32c0,82.208,35.715,130.405,65.689,156.374
		c32.499,28.189,64.981,36.742,66.328,37.087l2.853,0.729l0.007-303.281L95.466,125.19z"/>
	<polygon style="fill:#FFC61B;" points="345.203,139.417 345.203,187.507 220.343,197.507 230.343,99.587 	"/>
	<polygon style="fill:#e3ab02;" points="230.343,99.587 230.343,197.507 115.463,187.507 115.463,139.427 	"/>
	<path style="fill:#7a4d1f;" d="M230.343,187.507h114.86c0,74.65-31.96,118.02-58.77,141.26c-24.43,21.18-48.92,29.95-56.09,32.21
		L230.343,187.507L230.343,187.507z"/>
	<path style="fill:#D48B07;" d="M230.343,187.507v173.47c-7.19-2.27-31.74-11.08-56.08-32.2c-26.83-23.24-58.8-66.61-58.8-141.27
		L230.343,187.507L230.343,187.507z"/>
</g>
</svg>
